<?xml version="1.0" encoding="utf-8"?>
<svg width="480px" height="87px" viewBox="0 0 480 87" version="1.1" xmlns:xlink="http://www.w3.org/1999/xlink" xmlns="http://www.w3.org/2000/svg">
  <defs>
    <linearGradient x1="0.5" y1="0" x2="0.5" y2="1" id="gradient_1">
      <stop offset="0" stop-color="#FFCC00" />
      <stop offset="1" stop-color="#B032E7" />
    </linearGradient>
  </defs>
  <g fill="url(#gradient_1)" stroke="none" id="Dropzone-Bar">
    <path d="M23.1136 69.6818L4.55114 69.6818L4.55114 17.3182L23.267 17.3182Q31.1676 17.3182 36.8821 20.4503Q42.5966 23.5824 45.6648 29.4375Q48.733 35.2926 48.733 43.4489Q48.733 51.6307 45.652 57.5114Q42.571 63.392 36.831 66.5369Q31.0909 69.6818 23.1136 69.6818ZM365.906 17.3182L365.906 69.6818L388.278 69.6818C392.199 69.6818 395.497 69.0554 398.173 67.8026Q402.188 65.9233 404.246 62.6506Q406.304 59.3778 406.304 55.2102Q406.304 51.3239 404.668 48.5369Q403.031 45.75 400.411 44.1903Q397.79 42.6307 394.798 42.5028L394.798 41.9915Q398.889 41.071 401.574 38.2202Q404.259 35.3693 404.259 30.7415Q404.259 24.8608 399.899 21.0895Q395.54 17.3182 386.872 17.3182L365.906 17.3182ZM385.185 39.2301L376.977 39.2301L376.977 26.267L385.389 26.267Q389.071 26.267 391.078 28.0057Q393.085 29.7443 393.085 32.5824Q393.085 35.6761 390.835 37.4531Q388.585 39.2301 385.185 39.2301ZM15.6222 60.196L22.6534 60.196Q30.0426 60.196 33.8651 56.2074Q37.6875 52.2187 37.6875 43.4489Q37.6875 34.7301 33.8651 30.767Q30.0426 26.804 22.679 26.804L15.6222 26.804L15.6222 60.196ZM56.7102 69.6818L56.7102 30.4091L67.2699 30.4091L67.2699 37.2614L67.679 37.2614Q68.7528 33.6051 71.2841 31.7258Q73.8153 29.8466 77.1136 29.8466Q78.929 29.8466 80.5398 30.2301L80.5398 39.8949Q79.7727 39.6392 78.4176 39.473Q77.0625 39.3068 75.9375 39.3068Q72.3324 39.3068 69.9673 41.5696Q67.6023 43.8324 67.6023 47.4631L67.6023 69.6818L56.7102 69.6818ZM465.622 30.4091L455.063 30.4091L455.063 69.6818L465.955 69.6818L465.955 47.4631Q465.955 43.8324 468.32 41.5696Q470.685 39.3068 474.29 39.3068Q475.415 39.3068 476.77 39.473Q478.125 39.6392 478.892 39.8949L478.892 30.2301Q477.281 29.8466 475.466 29.8466Q472.168 29.8466 469.636 31.7258Q467.105 33.6051 466.031 37.2614L465.622 37.2614L465.622 30.4091ZM93.5923 67.9048Q97.9261 70.4489 103.884 70.4489Q109.841 70.4489 114.175 67.9048Q118.509 65.3608 120.861 60.7969Q123.213 56.233 123.213 50.1989Q123.213 44.1136 120.861 39.5497Q118.509 34.9858 114.175 32.4418Q109.841 29.8977 103.884 29.8977Q97.9261 29.8977 93.5923 32.4418Q89.2585 34.9858 86.9063 39.5497Q84.554 44.1136 84.554 50.1989Q84.554 56.233 86.9063 60.7969Q89.2585 65.3608 93.5923 67.9048ZM130.321 84.4091L130.321 30.4091L141.06 30.4091L141.06 37.0057L141.545 37.0057Q142.287 35.3949 143.642 33.7585Q144.997 32.1222 147.222 31.0099Q149.446 29.8977 152.719 29.8977Q157.04 29.8977 160.645 32.1349Q164.25 34.3722 166.436 38.8594Q168.622 43.3466 168.622 50.0966Q168.622 56.6676 166.5 61.1804Q164.378 65.6932 160.773 68.0071Q157.168 70.321 152.693 70.321Q149.523 70.321 147.311 69.2727Q145.099 68.2244 143.706 66.6264Q142.313 65.0284 141.545 63.392L141.213 63.392L141.213 84.4091L130.321 84.4091ZM234.767 70.4489Q228.81 70.4489 224.476 67.9048Q220.142 65.3608 217.79 60.7969Q215.438 56.233 215.438 50.1989Q215.438 44.1136 217.79 39.5497Q220.142 34.9858 224.476 32.4418Q228.81 29.8977 234.767 29.8977Q240.724 29.8977 245.058 32.4418Q249.392 34.9858 251.744 39.5497Q254.097 44.1136 254.097 50.1989Q254.097 56.233 251.744 60.7969Q249.392 65.3608 245.058 67.9048Q240.724 70.4489 234.767 70.4489ZM272.097 69.6818L272.097 46.9773Q272.122 43.1676 274.18 41.0582Q276.239 38.9489 279.537 38.9489Q282.81 38.9489 284.676 40.9815Q286.543 43.0142 286.517 46.6193L286.517 69.6818L297.409 69.6818L297.409 44.6761Q297.409 37.7983 293.702 33.848Q289.994 29.8977 283.858 29.8977Q279.486 29.8977 276.43 31.9048Q273.375 33.9119 272.045 37.3381L271.585 37.3381L271.585 30.4091L261.205 30.4091L261.205 69.6818L272.097 69.6818ZM323.872 70.4489Q317.838 70.4489 313.466 67.9815Q309.094 65.5142 306.742 60.9758Q304.389 56.4375 304.389 50.2244Q304.389 44.1648 306.742 39.5881Q309.094 35.0114 313.376 32.4545Q317.659 29.8977 323.438 29.8977Q328.628 29.8977 332.808 32.0966Q336.989 34.2955 339.443 38.7315Q341.898 43.1676 341.898 49.8409L341.898 52.8324L315.153 52.8324L315.153 52.858Q315.153 57.2557 317.557 59.7869Q319.96 62.3182 324.051 62.3182Q326.787 62.3182 328.781 61.1676Q330.776 60.017 331.594 57.767L341.668 58.4318Q340.517 63.9034 335.838 67.1761Q331.159 70.4489 323.872 70.4489ZM424.483 70.4233Q418.858 70.4233 415.151 67.483Q411.443 64.5426 411.443 58.7131Q411.443 54.3153 413.514 51.8097Q415.585 49.304 418.947 48.1406Q422.31 46.9773 426.196 46.6193Q431.31 46.108 433.509 45.5455Q435.707 44.983 435.707 43.0909L435.707 42.9375Q435.707 40.5085 434.186 39.179Q432.665 37.8494 429.878 37.8494Q426.938 37.8494 425.199 39.1278Q423.46 40.4062 422.898 42.375L412.824 41.5568Q413.949 36.1875 418.411 33.0426Q422.872 29.8977 429.929 29.8977Q434.301 29.8977 438.111 31.2784Q441.92 32.6591 444.26 35.5866Q446.599 38.5142 446.599 43.1932L446.599 69.6818L436.27 69.6818L436.27 64.2358L435.963 64.2358Q434.531 66.9716 431.68 68.6974Q428.83 70.4233 424.483 70.4233ZM175.653 63.1875L175.653 69.6818L208.662 69.6818L208.662 60.9886L189.946 60.9886L189.946 60.7074L207.997 37.4915L207.997 30.4091L176.318 30.4091L176.318 39.1023L194.881 39.1023L194.881 39.3835L175.653 63.1875ZM315.153 46.0824L331.645 46.0824Q331.619 42.5795 329.395 40.304Q327.17 38.0284 323.617 38.0284Q319.986 38.0284 317.659 40.3807Q315.332 42.733 315.153 46.0824ZM110.058 58.6364Q107.974 62.0114 103.935 62.0114Q99.8182 62.0114 97.7216 58.6364Q95.625 55.2614 95.625 50.1222Q95.625 44.983 97.7216 41.5952Q99.8182 38.2074 103.935 38.2074Q107.974 38.2074 110.058 41.5952Q112.142 44.983 112.142 50.1222Q112.142 55.2614 110.058 58.6364ZM234.818 62.0114Q238.858 62.0114 240.942 58.6364Q243.026 55.2614 243.026 50.1222Q243.026 44.983 240.942 41.5952Q238.858 38.2074 234.818 38.2074Q230.702 38.2074 228.605 41.5952Q226.509 44.983 226.509 50.1222Q226.509 55.2614 228.605 58.6364Q230.702 62.0114 234.818 62.0114ZM140.983 50.0455Q140.983 55.2869 143.143 58.4702Q145.304 61.6534 149.241 61.6534Q153.256 61.6534 155.378 58.419Q157.5 55.1847 157.5 50.0455Q157.5 44.9318 155.391 41.7486Q153.281 38.5653 149.241 38.5653Q145.278 38.5653 143.131 41.6719Q140.983 44.7784 140.983 50.0455ZM386.003 60.6307L376.977 60.6307L376.977 46.7216L386.259 46.7216Q390.247 46.7216 392.561 48.7926Q394.875 50.8636 394.875 54.1108Q394.875 57.0511 392.766 58.8409Q390.656 60.6307 386.003 60.6307ZM427.602 62.9062Q431.182 62.9062 433.483 60.8224Q435.784 58.7386 435.784 55.6449L435.784 51.4773Q435.145 51.9119 433.803 52.2443Q432.46 52.5767 430.939 52.8196Q429.418 53.0625 428.216 53.2415Q425.352 53.6506 423.601 54.8523Q421.849 56.054 421.849 58.3551Q421.849 60.6051 423.473 61.7557Q425.097 62.9063 427.602 62.9062Z" />
  </g>
</svg>