<?xml version="1.0" encoding="utf-8"?>
<svg width="357px" height="99px" viewBox="0 0 357 99" version="1.1" xmlns:xlink="http://www.w3.org/1999/xlink" xmlns="http://www.w3.org/2000/svg">
  <defs>
    <linearGradient x1="0.5251325" y1="-0.56587076" x2="0.5342861" y2="1.5747126" id="gradient_1">
      <stop offset="0" stop-color="#FAE800" />
      <stop offset="1" stop-color="#B032E7" />
    </linearGradient>
    <filter filterUnits="userSpaceOnUse" color-interpolation-filters="sRGB" id="filter_1">
      <feFlood flood-opacity="0" result="BackgroundImageFix" />
      <feColorMatrix in="SourceAlpha" type="matrix" values="0 0 0 0 0 0 0 0 0 0 0 0 0 0 0 0 0 0 127 0" />
      <feOffset dx="0" dy="2" />
      <feGaussianBlur stdDeviation="2" />
      <feColorMatrix type="matrix" values="0 0 0 0 0 0 0 0 0 0 0 0 0 0 0 0 0 0 1 0" />
      <feBlend mode="normal" in2="BackgroundImageFix" result="effect0_dropShadow" />
      <feBlend mode="normal" in="SourceGraphic" in2="effect0_dropShadow" result="shape" />
    </filter>
  </defs>
  <g fill="url(#gradient_1)" stroke="none" id="Dropzone" filter="url(#filter_1)" transform="translate(6 4)">
    <path d="M4.55114 69.6818L23.1136 69.6818Q31.0909 69.6818 36.831 66.5369Q42.571 63.392 45.652 57.5114Q48.733 51.6307 48.733 43.4489Q48.733 35.2926 45.6648 29.4375Q42.5966 23.5824 36.8821 20.4503Q31.1676 17.3182 23.267 17.3182L4.55114 17.3182L4.55114 69.6818ZM22.6534 60.196L15.6222 60.196L15.6222 26.804L22.679 26.804Q30.0426 26.804 33.8651 30.767Q37.6875 34.7301 37.6875 43.4489Q37.6875 52.2187 33.8651 56.2074Q30.0426 60.196 22.6534 60.196ZM56.7102 30.4091L56.7102 69.6818L67.6023 69.6818L67.6023 47.4631Q67.6023 43.8324 69.9673 41.5696Q72.3324 39.3068 75.9375 39.3068Q77.0625 39.3068 78.4176 39.473Q79.7727 39.6392 80.5398 39.8949L80.5398 30.2301Q78.929 29.8466 77.1136 29.8466Q73.8153 29.8466 71.2841 31.7258Q68.7528 33.6051 67.679 37.2614L67.2699 37.2614L67.2699 30.4091L56.7102 30.4091ZM103.884 70.4489Q97.9261 70.4489 93.5923 67.9048Q89.2585 65.3608 86.9063 60.7969Q84.554 56.233 84.554 50.1989Q84.554 44.1136 86.9063 39.5497Q89.2585 34.9858 93.5923 32.4418Q97.9261 29.8977 103.884 29.8977Q109.841 29.8977 114.175 32.4418Q118.509 34.9858 120.861 39.5497Q123.213 44.1136 123.213 50.1989Q123.213 56.233 120.861 60.7969Q118.509 65.3608 114.175 67.9048Q109.841 70.4489 103.884 70.4489ZM130.321 30.4091L130.321 84.4091L141.213 84.4091L141.213 63.392L141.545 63.392Q142.313 65.0284 143.706 66.6264Q145.099 68.2244 147.311 69.2727Q149.523 70.321 152.693 70.321Q157.168 70.321 160.773 68.0071Q164.378 65.6932 166.5 61.1804Q168.622 56.6676 168.622 50.0966Q168.622 43.3466 166.436 38.8594Q164.25 34.3722 160.645 32.1349Q157.04 29.8977 152.719 29.8977Q149.446 29.8977 147.222 31.0099Q144.997 32.1222 143.642 33.7585Q142.287 35.3949 141.545 37.0057L141.06 37.0057L141.06 30.4091L130.321 30.4091ZM224.476 67.9048Q228.81 70.4489 234.767 70.4489Q240.724 70.4489 245.058 67.9048Q249.392 65.3608 251.744 60.7969Q254.097 56.233 254.097 50.1989Q254.097 44.1136 251.744 39.5497Q249.392 34.9858 245.058 32.4418Q240.724 29.8977 234.767 29.8977Q228.81 29.8977 224.476 32.4418Q220.142 34.9858 217.79 39.5497Q215.438 44.1136 215.438 50.1989Q215.438 56.233 217.79 60.7969Q220.142 65.3608 224.476 67.9048ZM272.097 46.9773L272.097 69.6818L261.205 69.6818L261.205 30.4091L271.585 30.4091L271.585 37.3381L272.045 37.3381Q273.375 33.9119 276.43 31.9048Q279.486 29.8977 283.858 29.8977Q289.994 29.8977 293.702 33.848Q297.409 37.7983 297.409 44.6761L297.409 69.6818L286.517 69.6818L286.517 46.6193Q286.543 43.0142 284.676 40.9815Q282.81 38.9489 279.537 38.9489Q276.239 38.9489 274.18 41.0582Q272.122 43.1676 272.097 46.9773ZM313.466 67.9815Q317.838 70.4489 323.872 70.4489Q331.159 70.4489 335.838 67.1761Q340.517 63.9034 341.668 58.4318L331.594 57.767Q330.776 60.017 328.781 61.1676Q326.787 62.3182 324.051 62.3182Q319.96 62.3182 317.557 59.7869Q315.153 57.2557 315.153 52.858L315.153 52.8324L341.898 52.8324L341.898 49.8409Q341.898 43.1676 339.443 38.7315Q336.989 34.2955 332.808 32.0966Q328.628 29.8977 323.438 29.8977Q317.659 29.8977 313.376 32.4545Q309.094 35.0114 306.742 39.5881Q304.389 44.1648 304.389 50.2244Q304.389 56.4375 306.742 60.9758Q309.094 65.5142 313.466 67.9815ZM175.653 69.6818L175.653 63.1875L194.881 39.3835L194.881 39.1023L176.318 39.1023L176.318 30.4091L207.997 30.4091L207.997 37.4915L189.946 60.7074L189.946 60.9886L208.662 60.9886L208.662 69.6818L175.653 69.6818ZM331.645 46.0824L315.153 46.0824Q315.332 42.733 317.659 40.3807Q319.986 38.0284 323.617 38.0284Q327.17 38.0284 329.395 40.304Q331.619 42.5795 331.645 46.0824ZM103.935 62.0114Q107.974 62.0114 110.058 58.6364Q112.142 55.2614 112.142 50.1222Q112.142 44.983 110.058 41.5952Q107.974 38.2074 103.935 38.2074Q99.8182 38.2074 97.7216 41.5952Q95.625 44.983 95.625 50.1222Q95.625 55.2614 97.7216 58.6364Q99.8182 62.0114 103.935 62.0114ZM240.942 58.6364Q238.858 62.0114 234.818 62.0114Q230.702 62.0114 228.605 58.6364Q226.509 55.2614 226.509 50.1222Q226.509 44.983 228.605 41.5952Q230.702 38.2074 234.818 38.2074Q238.858 38.2074 240.942 41.5952Q243.026 44.983 243.026 50.1222Q243.026 55.2614 240.942 58.6364ZM143.143 58.4702Q140.983 55.2869 140.983 50.0455Q140.983 44.7784 143.131 41.6719Q145.278 38.5653 149.241 38.5653Q153.281 38.5653 155.391 41.7486Q157.5 44.9318 157.5 50.0455Q157.5 55.1847 155.378 58.419Q153.256 61.6534 149.241 61.6534Q145.304 61.6534 143.143 58.4702Z" />
  </g>
</svg>