<?xml version="1.0" encoding="utf-8"?>
<svg width="447px" height="113px" viewBox="0 0 447 113" version="1.1" xmlns:xlink="http://www.w3.org/1999/xlink" xmlns="http://www.w3.org/2000/svg">
  <defs>
    <linearGradient x1="0.5" y1="0" x2="0.5" y2="1" id="gradient_1">
      <stop offset="0" stop-color="#F8C822" />
      <stop offset="1" stop-color="#F4E83F" />
    </linearGradient>
    <filter filterUnits="userSpaceOnUse" color-interpolation-filters="sRGB" id="filter_1">
      <feFlood flood-opacity="0" result="BackgroundImageFix" />
      <feColorMatrix in="SourceAlpha" type="matrix" values="0 0 0 0 0 0 0 0 0 0 0 0 0 0 0 0 0 0 127 0" />
      <feOffset dx="0" dy="2" />
      <feGaussianBlur stdDeviation="2" />
      <feColorMatrix type="matrix" values="0 0 0 0 0 0 0 0 0 0 0 0 0 0 0 0 0 0 1 0" />
      <feBlend mode="normal" in2="BackgroundImageFix" result="effect0_dropShadow" />
      <feBlend mode="normal" in="SourceGraphic" in2="effect0_dropShadow" result="shape" />
    </filter>
  </defs>
  <g id="eSports-bar">
    <g fill="url(#gradient_1)" stroke="none" id="Dropzone" filter="url(#filter_1)" transform="translate(101.99994 2.8178406)">
      <path d="M4.55114 69.6818L23.1136 69.6818Q31.0909 69.6818 36.831 66.5369Q42.571 63.392 45.652 57.5114Q48.733 51.6307 48.733 43.4489Q48.733 35.2926 45.6648 29.4375Q42.5966 23.5824 36.8821 20.4503Q31.1676 17.3182 23.267 17.3182L4.55114 17.3182L4.55114 69.6818ZM22.6534 60.196L15.6222 60.196L15.6222 26.804L22.679 26.804Q30.0426 26.804 33.8651 30.767Q37.6875 34.7301 37.6875 43.4489Q37.6875 52.2187 33.8651 56.2074Q30.0426 60.196 22.6534 60.196ZM56.7102 30.4091L56.7102 69.6818L67.6023 69.6818L67.6023 47.4631Q67.6023 43.8324 69.9673 41.5696Q72.3324 39.3068 75.9375 39.3068Q77.0625 39.3068 78.4176 39.473Q79.7727 39.6392 80.5398 39.8949L80.5398 30.2301Q78.929 29.8466 77.1136 29.8466Q73.8153 29.8466 71.2841 31.7258Q68.7528 33.6051 67.679 37.2614L67.2699 37.2614L67.2699 30.4091L56.7102 30.4091ZM103.884 70.4489Q97.9261 70.4489 93.5923 67.9048Q89.2585 65.3608 86.9063 60.7969Q84.554 56.233 84.554 50.1989Q84.554 44.1136 86.9063 39.5497Q89.2585 34.9858 93.5923 32.4418Q97.9261 29.8977 103.884 29.8977Q109.841 29.8977 114.175 32.4418Q118.509 34.9858 120.861 39.5497Q123.213 44.1136 123.213 50.1989Q123.213 56.233 120.861 60.7969Q118.509 65.3608 114.175 67.9048Q109.841 70.4489 103.884 70.4489ZM130.321 30.4091L130.321 84.4091L141.213 84.4091L141.213 63.392L141.545 63.392Q142.313 65.0284 143.706 66.6264Q145.099 68.2244 147.311 69.2727Q149.523 70.321 152.693 70.321Q157.168 70.321 160.773 68.0071Q164.378 65.6932 166.5 61.1804Q168.622 56.6676 168.622 50.0966Q168.622 43.3466 166.436 38.8594Q164.25 34.3722 160.645 32.1349Q157.04 29.8977 152.719 29.8977Q149.446 29.8977 147.222 31.0099Q144.997 32.1222 143.642 33.7585Q142.287 35.3949 141.545 37.0057L141.06 37.0057L141.06 30.4091L130.321 30.4091ZM224.476 67.9048Q228.81 70.4489 234.767 70.4489Q240.724 70.4489 245.058 67.9048Q249.392 65.3608 251.744 60.7969Q254.097 56.233 254.097 50.1989Q254.097 44.1136 251.744 39.5497Q249.392 34.9858 245.058 32.4418Q240.724 29.8977 234.767 29.8977Q228.81 29.8977 224.476 32.4418Q220.142 34.9858 217.79 39.5497Q215.438 44.1136 215.438 50.1989Q215.438 56.233 217.79 60.7969Q220.142 65.3608 224.476 67.9048ZM272.097 46.9773L272.097 69.6818L261.205 69.6818L261.205 30.4091L271.585 30.4091L271.585 37.3381L272.045 37.3381Q273.375 33.9119 276.43 31.9048Q279.486 29.8977 283.858 29.8977Q289.994 29.8977 293.702 33.848Q297.409 37.7983 297.409 44.6761L297.409 69.6818L286.517 69.6818L286.517 46.6193Q286.543 43.0142 284.676 40.9815Q282.81 38.9489 279.537 38.9489Q276.239 38.9489 274.18 41.0582Q272.122 43.1676 272.097 46.9773ZM313.466 67.9815Q317.838 70.4489 323.872 70.4489Q331.159 70.4489 335.838 67.1761Q340.517 63.9034 341.668 58.4318L331.594 57.767Q330.776 60.017 328.781 61.1676Q326.787 62.3182 324.051 62.3182Q319.96 62.3182 317.557 59.7869Q315.153 57.2557 315.153 52.858L315.153 52.8324L341.898 52.8324L341.898 49.8409Q341.898 43.1676 339.443 38.7315Q336.989 34.2955 332.808 32.0966Q328.628 29.8977 323.438 29.8977Q317.659 29.8977 313.376 32.4545Q309.094 35.0114 306.742 39.5881Q304.389 44.1648 304.389 50.2244Q304.389 56.4375 306.742 60.9758Q309.094 65.5142 313.466 67.9815ZM175.653 69.6818L175.653 63.1875L194.881 39.3835L194.881 39.1023L176.318 39.1023L176.318 30.4091L207.997 30.4091L207.997 37.4915L189.946 60.7074L189.946 60.9886L208.662 60.9886L208.662 69.6818L175.653 69.6818ZM331.645 46.0824L315.153 46.0824Q315.332 42.733 317.659 40.3807Q319.986 38.0284 323.617 38.0284Q327.17 38.0284 329.395 40.304Q331.619 42.5795 331.645 46.0824ZM103.935 62.0114Q107.974 62.0114 110.058 58.6364Q112.142 55.2614 112.142 50.1222Q112.142 44.983 110.058 41.5952Q107.974 38.2074 103.935 38.2074Q99.8182 38.2074 97.7216 41.5952Q95.625 44.983 95.625 50.1222Q95.625 55.2614 97.7216 58.6364Q99.8182 62.0114 103.935 62.0114ZM240.942 58.6364Q238.858 62.0114 234.818 62.0114Q230.702 62.0114 228.605 58.6364Q226.509 55.2614 226.509 50.1222Q226.509 44.983 228.605 41.5952Q230.702 38.2074 234.818 38.2074Q238.858 38.2074 240.942 41.5952Q243.026 44.983 243.026 50.1222Q243.026 55.2614 240.942 58.6364ZM143.143 58.4702Q140.983 55.2869 140.983 50.0455Q140.983 44.7784 143.131 41.6719Q145.278 38.5653 149.241 38.5653Q153.281 38.5653 155.391 41.7486Q157.5 44.9318 157.5 50.0455Q157.5 55.1847 155.378 58.419Q153.256 61.6534 149.241 61.6534Q145.304 61.6534 143.143 58.4702Z" />
    </g>
    <g filter="url(#filter_1)">
      <g id="sports_esports_black_24dp">
        <g id="Group">
          <path d="M0 0L92 0L92 92L0 92L0 0Z" id="Rectangle" fill="none" fill-rule="evenodd" stroke="none" />
        </g>
        <g id="Group" transform="translate(9.175964 19.166687)">
          <g id="Group">
            <path d="M73.5473 42.5117L69.369 13.1483C68.2957 5.59667 61.8174 0 54.189 0L19.459 0C11.8307 0 5.35235 5.59667 4.27902 13.1483L0.100688 42.5117C-0.742646 48.415 3.81902 53.6667 9.76069 53.6667L9.76069 53.6667C12.3674 53.6667 14.8207 52.6317 16.6607 50.7917L25.324 42.1667L48.324 42.1667L56.949 50.7917C58.789 52.6317 61.2807 53.6667 63.849 53.6667L63.849 53.6667C69.829 53.6667 74.3907 48.415 73.5473 42.5117L73.5473 42.5117ZM65.4974 45.2717C65.1907 45.6167 64.6924 46 63.8874 46C63.3124 46 62.7757 45.77 62.3924 45.3867L51.5057 34.5L22.1424 34.5L11.2557 45.3867C10.8724 45.77 10.3357 46 9.76071 46C8.95571 46 8.45737 45.6167 8.15071 45.2717C7.84404 44.9267 7.53737 44.39 7.65237 43.585L11.8307 14.2217C12.4057 10.5033 15.664 7.66667 19.459 7.66667L54.189 7.66667C57.984 7.66667 61.2424 10.5033 61.779 14.26L65.9574 43.6233C66.0724 44.39 65.7657 44.9267 65.4974 45.2717L65.4974 45.2717Z" id="Shape" fill="#FFFFFF" fill-rule="evenodd" stroke="none" />
            <path d="M11.5 0L7.66667 0L7.66667 7.66667L0 7.66667L0 11.5L7.66667 11.5L7.66667 19.1667L11.5 19.1667L11.5 11.5L19.1667 11.5L19.1667 7.66667L11.5 7.66667L11.5 0Z" transform="translate(13.824005 11.5)" id="Polygon" fill="#FFFFFF" fill-rule="evenodd" stroke="none" />
            <path d="M0 3.83333C0 1.71624 1.71624 0 3.83333 0C5.95043 0 7.66667 1.71624 7.66667 3.83333C7.66667 5.95043 5.95043 7.66667 3.83333 7.66667C1.71624 7.66667 0 5.95043 0 3.83333Z" transform="translate(52.15732 23)" id="Circle" fill="#FFFFFF" fill-rule="evenodd" stroke="none" />
            <path d="M0 3.83333C0 1.71624 1.71624 0 3.83333 0C5.95043 0 7.66667 1.71624 7.66667 3.83333C7.66667 5.95043 5.95043 7.66667 3.83333 7.66667C1.71624 7.66667 0 5.95043 0 3.83333Z" transform="translate(44.49066 11.5)" id="Circle" fill="#FFFFFF" fill-rule="evenodd" stroke="none" />
          </g>
        </g>
      </g>
    </g>
    <g id="eSports-bar" fill="#FFFFFF" transform="translate(347.99994 90.217834)">
      <path d="M18.294 6.21875Q19.1122 6.75568 19.2273 7.72727L20.7614 7.72727Q20.7294 6.7365 20.1509 5.95667Q19.5724 5.17685 18.5881 4.72621Q17.6037 4.27557 16.3381 4.27557Q15.0852 4.27557 14.0721 4.7326Q13.0589 5.18963 12.4613 6.01101Q11.8636 6.83239 11.8636 7.93182Q11.8636 9.25497 12.7585 10.0732Q13.6534 10.8913 15.1875 11.3324L16.7983 11.7926Q17.4886 11.9844 18.0831 12.2401Q18.6776 12.4957 19.0419 12.9048Q19.4063 13.3139 19.4063 13.9659Q19.4063 14.6818 18.9844 15.2156Q18.5625 15.7493 17.8402 16.0465Q17.1179 16.3438 16.2102 16.3438Q15.4304 16.3438 14.756 16.1104Q14.0817 15.8771 13.6438 15.3945Q13.206 14.9119 13.142 14.1705L11.5057 14.1705Q11.6207 15.7813 12.8608 16.7784Q14.1009 17.7756 16.2102 17.7756Q17.7188 17.7756 18.7766 17.2706Q19.8345 16.7656 20.3874 15.9091Q20.9403 15.0526 20.9403 13.9915Q20.9403 13.071 20.5632 12.4382Q20.1861 11.8054 19.6076 11.3995Q19.0291 10.9936 18.3995 10.7571Q17.7699 10.5206 17.2585 10.3864L15.929 10.0284Q15.4432 9.90057 14.8519 9.66087Q14.2607 9.42117 13.8292 8.9897Q13.3977 8.55824 13.3977 7.85511Q13.3977 6.91548 14.1903 6.29865Q14.983 5.68182 16.2869 5.68182Q17.4759 5.68182 18.294 6.21875ZM72.9716 4.45454L72.9716 17.5455L74.429 17.5455L74.429 16.0369L74.608 16.0369Q74.7742 16.3054 75.081 16.7113Q75.3878 17.1172 75.9567 17.4336Q76.5256 17.75 77.4716 17.75Q78.6989 17.75 79.6385 17.1268Q80.5781 16.5036 81.1087 15.3626Q81.6392 14.2216 81.6392 12.6619Q81.6392 11.1151 81.1087 9.97727Q80.5781 8.83949 79.6321 8.21946Q78.6861 7.59943 77.446 7.59943Q76.4872 7.59943 75.9279 7.91584Q75.3686 8.23224 75.0714 8.63175Q74.7742 9.03125 74.608 9.28693L74.4801 9.28693L74.4801 4.45454L72.9716 4.45454ZM56.0199 9.00568L56.0199 7.72727L53.9233 7.72727L53.9233 5.375L52.4148 5.375L52.4148 7.72727L50.9318 7.72727L50.9318 9.00568L52.4148 9.00568L52.4148 15.142Q52.4148 15.9986 52.8143 16.5611Q53.2138 17.1236 53.8242 17.3984Q54.4347 17.6733 55.0739 17.6733Q55.4957 17.6733 55.7706 17.6126Q56.0455 17.5518 56.1989 17.4943L55.892 16.1392Q55.7962 16.1584 55.6364 16.1871Q55.4766 16.2159 55.2273 16.2159Q54.8949 16.2159 54.5977 16.1104Q54.3004 16.005 54.1119 15.6886Q53.9233 15.3722 53.9233 14.733L53.9233 9.00568L56.0199 9.00568ZM45.0511 7.72727L46.5085 7.72727L46.5085 9.21023L46.6108 9.21023Q46.8793 8.48153 47.5824 8.0277Q48.2855 7.57386 49.1676 7.57386Q49.3338 7.57386 49.5831 7.58025Q49.8324 7.58665 49.9602 7.59943L49.9602 9.13352Q49.8835 9.11435 49.6119 9.0728Q49.3402 9.03125 49.0398 9.03125Q47.9659 9.03125 47.2628 9.68324Q46.5597 10.3352 46.5597 11.3324L46.5597 17.5455L45.0511 17.5455L45.0511 7.72727ZM95.5483 7.72727L94.0909 7.72727L94.0909 17.5455L95.5994 17.5455L95.5994 11.3324Q95.5994 10.3352 96.3026 9.68324Q97.0057 9.03125 98.0795 9.03125Q98.38 9.03125 98.6516 9.0728Q98.9233 9.11435 99 9.13352L99 7.59943Q98.8722 7.58665 98.6229 7.58025Q98.3736 7.57386 98.2074 7.57386Q97.3253 7.57386 96.6222 8.0277Q95.919 8.48153 95.6506 9.21023L95.5483 9.21023L95.5483 7.72727ZM3.0522 17.1204Q4.07812 17.75 5.49716 17.75Q6.9929 17.75 8.02841 17.0661Q9.06392 16.3821 9.40909 15.2699L7.9517 14.8608Q7.66406 15.6278 7.02486 16.0114Q6.38565 16.3949 5.49716 16.3949Q4.16761 16.3949 3.32706 15.5575Q2.48651 14.7202 2.43537 13.1477L9.5625 13.1477L9.5625 12.5085Q9.5625 11.1342 9.19815 10.1946Q8.83381 9.25497 8.22017 8.68288Q7.60653 8.11079 6.85866 7.85511Q6.1108 7.59943 5.34375 7.59943Q4.0142 7.59943 3.02024 8.24822Q2.02628 8.89702 1.47337 10.0508Q0.920455 11.2045 0.920455 12.7131Q0.920455 14.2216 1.47337 15.3562Q2.02628 16.4908 3.0522 17.1204ZM23.3438 21.2273L23.3438 7.72727L24.8011 7.72727L24.8011 9.28693L24.9801 9.28693Q25.1463 9.03125 25.4435 8.63175Q25.7408 8.23224 26.3001 7.91584Q26.8594 7.59943 27.8182 7.59943Q29.0582 7.59943 30.0043 8.21946Q30.9503 8.83949 31.4808 9.97727Q32.0114 11.1151 32.0114 12.6619Q32.0114 14.2216 31.4808 15.3626Q30.9503 16.5036 30.0107 17.1268Q29.071 17.75 27.8438 17.75Q26.8977 17.75 26.3288 17.4336Q25.7599 17.1172 25.4531 16.7113Q25.1463 16.3054 24.9801 16.0369L24.8523 16.0369L24.8523 21.2273L23.3438 21.2273ZM35.9712 17.1172Q36.9716 17.75 38.3011 17.75Q39.6307 17.75 40.631 17.1172Q41.6314 16.4844 42.1907 15.3466Q42.75 14.2088 42.75 12.6875Q42.75 11.1534 42.1907 10.0092Q41.6314 8.86506 40.631 8.23224Q39.6307 7.59943 38.3011 7.59943Q36.9716 7.59943 35.9712 8.23224Q34.9709 8.86506 34.4116 10.0092Q33.8523 11.1534 33.8523 12.6875Q33.8523 14.2088 34.4116 15.3466Q34.9709 16.4844 35.9712 17.1172ZM65.25 9.92614L63.8949 10.3097Q63.6967 9.7983 63.2301 9.35085Q62.7635 8.90341 61.7727 8.90341Q60.8715 8.90341 60.2738 9.3157Q59.6761 9.72798 59.6761 10.3608Q59.6761 10.9233 60.0852 11.2493Q60.4943 11.5753 61.3636 11.7926L62.821 12.1506Q65.429 12.7898 65.429 14.8097Q65.429 15.6534 64.9464 16.3182Q64.4638 16.983 63.6009 17.3665Q62.7379 17.75 61.5938 17.75Q60.0916 17.75 59.1072 17.098Q58.1229 16.446 57.8608 15.1932L59.2926 14.8352Q59.6953 16.4205 61.5682 16.4205Q62.6229 16.4205 63.2461 15.9698Q63.8693 15.5192 63.8693 14.8864Q63.8693 13.8445 62.4119 13.5057L60.7756 13.1222Q59.4268 12.8026 58.7972 12.1282Q58.1676 11.4538 58.1676 10.4375Q58.1676 9.60653 58.6374 8.96733Q59.1072 8.32812 59.9222 7.96378Q60.7372 7.59943 61.7727 7.59943Q63.2301 7.59943 64.0643 8.23864Q64.8984 8.87784 65.25 9.92614ZM86.8296 17.7756Q85.8963 17.7756 85.1357 17.4208Q84.375 17.0661 83.9276 16.3917Q83.4801 15.7173 83.4801 14.7585Q83.4801 13.9148 83.8125 13.3874Q84.1449 12.8601 84.701 12.5597Q85.2571 12.2592 85.9315 12.109Q86.6058 11.9588 87.2898 11.8693Q88.1847 11.7543 88.744 11.6935Q89.3033 11.6328 89.5621 11.4858Q89.821 11.3388 89.821 10.9744L89.821 10.9233Q89.821 9.97727 89.3065 9.45312Q88.7919 8.92898 87.75 8.92898Q86.6697 8.92898 86.0561 9.40199Q85.4425 9.875 85.1932 10.4119L83.7614 9.90057Q84.1449 9.00568 84.7873 8.50391Q85.4297 8.00213 86.1935 7.80078Q86.9574 7.59943 87.6989 7.59943Q88.1719 7.59943 88.7887 7.71129Q89.4055 7.82315 89.984 8.16832Q90.5625 8.51349 90.946 9.21023Q91.3295 9.90696 91.3296 11.0767L91.3296 17.5455L89.821 17.5455L89.821 16.2159L89.7443 16.2159Q89.5909 16.5355 89.233 16.8999Q88.875 17.2642 88.2805 17.5199Q87.6861 17.7756 86.8296 17.7756ZM8.02841 11.8437L2.43537 11.8437Q2.48651 11.0831 2.85085 10.4215Q3.2152 9.75994 3.84801 9.35724Q4.48082 8.95454 5.34375 8.95454Q6.57102 8.95454 7.29972 9.77592Q8.02841 10.5973 8.02841 11.8437ZM24.8267 12.6364Q24.8267 14.3047 25.5522 15.3498Q26.2777 16.3949 27.6392 16.3949Q28.5852 16.3949 29.2212 15.8931Q29.8572 15.3913 30.18 14.538Q30.5028 13.6847 30.5028 12.6364Q30.5028 11.6009 30.1864 10.7667Q29.87 9.93253 29.234 9.44354Q28.598 8.95454 27.6392 8.95454Q26.2585 8.95454 25.5426 9.97088Q24.8267 10.9872 24.8267 12.6364ZM39.9631 15.8771Q39.3111 16.3949 38.3011 16.3949Q37.2912 16.3949 36.6392 15.8771Q35.9872 15.3594 35.674 14.5156Q35.3608 13.6719 35.3608 12.6875Q35.3608 11.7031 35.674 10.853Q35.9872 10.0028 36.6392 9.47869Q37.2912 8.95454 38.3011 8.95454Q39.3111 8.95454 39.9631 9.47869Q40.6151 10.0028 40.9283 10.853Q41.2415 11.7031 41.2415 12.6875Q41.2415 13.6719 40.9283 14.5156Q40.6151 15.3594 39.9631 15.8771ZM75.18 15.3498Q74.4546 14.3047 74.4546 12.6364Q74.4546 10.9872 75.1705 9.97088Q75.8864 8.95454 77.2671 8.95454Q78.2259 8.95454 78.8619 9.44354Q79.4979 9.93253 79.8143 10.7667Q80.1307 11.6009 80.1307 12.6364Q80.1307 13.6847 79.8079 14.538Q79.4851 15.3913 78.8491 15.8931Q78.2131 16.3949 77.2671 16.3949Q75.9055 16.3949 75.18 15.3498ZM87.0597 16.4205Q87.9546 16.4205 88.5714 16.0689Q89.1882 15.7173 89.5046 15.1612Q89.821 14.6051 89.821 13.9915L89.821 12.6108Q89.7251 12.7259 89.4023 12.8185Q89.0795 12.9112 88.6609 12.9783Q88.2422 13.0455 87.8491 13.0934Q87.456 13.1413 87.2131 13.1733Q86.625 13.25 86.1168 13.4194Q85.6087 13.5888 85.2987 13.9244Q84.9886 14.2599 84.9886 14.8352Q84.9886 15.6214 85.5735 16.021Q86.1584 16.4205 87.0597 16.4205Z" />
    </g>
  </g>
</svg>