<?xml version="1.0" encoding="utf-8"?>
<svg width="92px" height="92px" viewBox="0 0 92 92" version="1.1" xmlns:xlink="http://www.w3.org/1999/xlink" xmlns="http://www.w3.org/2000/svg">
  <g id="sports_esports_black_24dp">
    <g id="Group">
      <path d="M0 0L92 0L92 92L0 92L0 0Z" id="Rectangle" fill="none" fill-rule="evenodd" stroke="none" />
    </g>
    <g id="Group" transform="translate(9.175964 19.166672)">
      <g id="Group">
        <path d="M73.5473 42.5117L69.369 13.1483C68.2957 5.59667 61.8174 0 54.189 0L19.459 0C11.8307 0 5.35235 5.59667 4.27902 13.1483L0.100688 42.5117C-0.742646 48.415 3.81902 53.6667 9.76069 53.6667L9.76069 53.6667C12.3674 53.6667 14.8207 52.6317 16.6607 50.7917L25.324 42.1667L48.324 42.1667L56.949 50.7917C58.789 52.6317 61.2807 53.6667 63.849 53.6667L63.849 53.6667C69.829 53.6667 74.3907 48.415 73.5473 42.5117L73.5473 42.5117ZM65.4974 45.2717C65.1907 45.6167 64.6924 46 63.8874 46C63.3124 46 62.7757 45.77 62.3924 45.3867L51.5057 34.5L22.1424 34.5L11.2557 45.3867C10.8724 45.77 10.3357 46 9.76071 46C8.95571 46 8.45737 45.6167 8.15071 45.2717C7.84404 44.9267 7.53737 44.39 7.65237 43.585L11.8307 14.2217C12.4057 10.5033 15.664 7.66667 19.459 7.66667L54.189 7.66667C57.984 7.66667 61.2424 10.5033 61.779 14.26L65.9574 43.6233C66.0724 44.39 65.7657 44.9267 65.4974 45.2717L65.4974 45.2717Z" id="Shape" fill="#000000" fill-rule="evenodd" stroke="none" />
        <path d="M11.5 0L7.66667 0L7.66667 7.66667L0 7.66667L0 11.5L7.66667 11.5L7.66667 19.1667L11.5 19.1667L11.5 11.5L19.1667 11.5L19.1667 7.66667L11.5 7.66667L11.5 0Z" transform="translate(13.824005 11.5)" id="Polygon" fill="#000000" fill-rule="evenodd" stroke="none" />
        <path d="M0 3.83333C0 1.71624 1.71624 0 3.83333 0C5.95043 0 7.66667 1.71624 7.66667 3.83333C7.66667 5.95043 5.95043 7.66667 3.83333 7.66667C1.71624 7.66667 0 5.95043 0 3.83333Z" transform="translate(52.15732 23)" id="Circle" fill="#000000" fill-rule="evenodd" stroke="none" />
        <path d="M0 3.83333C0 1.71624 1.71624 0 3.83333 0C5.95043 0 7.66667 1.71624 7.66667 3.83333C7.66667 5.95043 5.95043 7.66667 3.83333 7.66667C1.71624 7.66667 0 5.95043 0 3.83333Z" transform="translate(44.49066 11.5)" id="Circle" fill="#000000" fill-rule="evenodd" stroke="none" />
      </g>
    </g>
  </g>
</svg>